<svg width="24" height="36" viewBox="0 0 24 36" fill="none" xmlns="http://www.w3.org/2000/svg">
<g clip-path="url(#clip0_5_217)">
<path d="M12 6C9.76 6 8.09333 6.02667 7 6.08C5.90667 6.13333 4.96 6.32 4.16 6.64C3.36 6.96 2.65333 7.42667 2.04 8.04C1.42667 8.65333 0.96 9.36 0.64 10.16C0.32 10.96 0.133333 11.9067 0.08 13C0.0266667 14.0933 0 15.76 0 18C0 20.24 0.0266667 21.9067 0.08 23C0.133333 24.0933 0.32 25.04 0.64 25.84C0.96 26.64 1.42667 27.3467 2.04 27.96C2.65333 28.5733 3.36 29.04 4.16 29.36C4.96 29.68 5.90667 29.8667 7 29.92C8.09333 29.9733 9.76 30 12 30C14.24 30 15.9067 29.9733 17 29.92C18.0933 29.8667 19.04 29.68 19.84 29.36C20.64 29.04 21.3467 28.5733 21.96 27.96C22.5733 27.3467 23.04 26.64 23.36 25.84C23.68 25.04 23.8667 24.0933 23.92 23C23.9733 21.9067 24 20.24 24 18C24 15.76 23.9733 14.0933 23.92 13C23.8667 11.9067 23.68 10.96 23.36 10.16C23.04 9.36 22.5733 8.65333 21.96 8.04C21.3467 7.42667 20.64 6.96 19.84 6.64C19.04 6.32 18.0933 6.13333 17 6.08C15.9067 6.02667 14.24 6 12 6ZM10.96 8.16H12C14.24 8.16 15.8667 8.18667 16.88 8.24C17.7333 8.29333 18.44 8.42667 19 8.64C19.56 8.85333 20.04 9.16 20.44 9.56C20.84 9.96 21.1467 10.44 21.36 11C21.5733 11.56 21.7067 12.2667 21.76 13.12C21.8133 14.1333 21.84 15.76 21.84 18C21.84 20.24 21.8133 21.8667 21.76 22.88C21.7067 23.7333 21.5733 24.44 21.36 25C21.1467 25.56 20.84 26.04 20.44 26.44C20.04 26.84 19.56 27.1467 19 27.36C18.44 27.5733 17.7333 27.7067 16.88 27.76C15.8133 27.8133 14.1867 27.84 12 27.84C9.81333 27.84 8.18667 27.8133 7.12 27.76C6.26667 27.7067 5.56 27.5733 5 27.36C4.44 27.1467 3.96 26.84 3.56 26.44C3.16 26.04 2.85333 25.56 2.64 25C2.42667 24.44 2.29333 23.7333 2.24 22.88C2.18667 21.8133 2.16 20.1733 2.16 17.96C2.16 15.7467 2.18667 14.1333 2.24 13.12C2.29333 12.2667 2.42667 11.56 2.64 11C2.85333 10.44 3.16 9.96 3.56 9.56C3.96 9.16 4.44 8.85333 5 8.64C5.56 8.42667 6.29333 8.29333 7.2 8.24C8.10667 8.18667 9.36 8.16 10.96 8.16ZM18.4 10.16C18.0267 10.16 17.6933 10.2933 17.4 10.56C17.1067 10.8267 16.96 11.16 16.96 11.56C16.96 11.96 17.1067 12.3067 17.4 12.6C17.6933 12.8933 18.04 13.04 18.44 13.04C18.84 13.04 19.1733 12.8933 19.44 12.6C19.7067 12.3067 19.84 11.96 19.84 11.56C19.84 11.16 19.7067 10.8267 19.44 10.56C19.1733 10.2933 18.8267 10.16 18.4 10.16ZM12 11.84C10.88 11.84 9.84 12.1067 8.88 12.64C7.92 13.1733 7.16 13.92 6.6 14.88C6.04 15.84 5.76 16.88 5.76 18C5.76 19.12 6.04 20.16 6.6 21.12C7.16 22.08 7.92 22.8267 8.88 23.36C9.84 23.8933 10.88 24.16 12 24.16C13.12 24.16 14.1467 23.88 15.08 23.32C16.0133 22.76 16.7467 22.0133 17.28 21.08C17.8133 20.1467 18.08 19.12 18.08 18C18.08 16.88 17.8133 15.8533 17.28 14.92C16.7467 13.9867 16.0133 13.24 15.08 12.68C14.1467 12.12 13.12 11.84 12 11.84ZM12 14C12.6933 14 13.36 14.1733 14 14.52C14.64 14.8667 15.1333 15.36 15.48 16C15.8267 16.64 16 17.3067 16 18C16 18.6933 15.8267 19.36 15.48 20C15.1333 20.64 14.64 21.1333 14 21.48C13.36 21.8267 12.6933 22 12 22C10.88 22 9.93333 21.6133 9.16 20.84C8.38667 20.0667 8 19.12 8 18C8 16.88 8.38667 15.9333 9.16 15.16C9.93333 14.3867 10.88 14 12 14Z" fill="white"/>
</g>
<defs>
<clipPath id="clip0_5_217">
<rect width="24" height="24" fill="white" transform="matrix(1 0 0 -1 0 30)"/>
</clipPath>
</defs>
</svg>
