<svg width="24" height="36" viewBox="0 0 24 36" fill="none" xmlns="http://www.w3.org/2000/svg">
<g clip-path="url(#clip0_5_214)">
<path d="M24 18.08C24 15.8933 23.4667 13.88 22.4 12.04C21.3333 10.2 19.88 8.73333 18.04 7.64C16.2 6.54667 14.1867 6 12 6C9.81333 6 7.8 6.54667 5.96 7.64C4.12 8.73333 2.66667 10.2 1.6 12.04C0.533333 13.88 0 15.8933 0 18.08C0 20.0533 0.44 21.8933 1.32 23.6C2.2 25.3067 3.41333 26.72 4.96 27.84C6.50667 28.96 8.24 29.68 10.16 30V21.6H7.04V18.08H10.16V15.44C10.16 13.9467 10.56 12.7867 11.36 11.96C12.16 11.1333 13.2533 10.72 14.64 10.72C15.1733 10.72 15.7867 10.7467 16.48 10.8L17.36 10.96V13.92H15.84C15.1467 13.92 14.64 14.0933 14.32 14.44C14 14.7867 13.84 15.2533 13.84 15.84V18.08H17.2L16.64 21.6H13.84V30C15.76 29.68 17.4933 28.96 19.04 27.84C20.5867 26.72 21.8 25.3067 22.68 23.6C23.56 21.8933 24 20.0533 24 18.08Z" fill="white"/>
</g>
<defs>
<clipPath id="clip0_5_214">
<rect width="24" height="24" fill="white" transform="matrix(1 0 0 -1 0 30)"/>
</clipPath>
</defs>
</svg>
