<svg width="48" height="48" viewBox="0 0 48 48" fill="none" xmlns="http://www.w3.org/2000/svg">
<g clip-path="url(#clip0_5_101)">
<path d="M24 6C24.3978 6 24.7794 6.15804 25.0607 6.43934C25.342 6.72064 25.5 7.10218 25.5 7.5V12C25.5 12.3978 25.342 12.7794 25.0607 13.0607C24.7794 13.342 24.3978 13.5 24 13.5C23.6022 13.5 23.2206 13.342 22.9393 13.0607C22.658 12.7794 22.5 12.3978 22.5 12V7.5C22.5 7.10218 22.658 6.72064 22.9393 6.43934C23.2206 6.15804 23.6022 6 24 6ZM11.196 11.196C11.4773 10.9148 11.8588 10.7568 12.2565 10.7568C12.6542 10.7568 13.0357 10.9148 13.317 11.196L16.062 13.938C16.3437 14.2197 16.5019 14.6017 16.5019 15C16.5019 15.3983 16.3437 15.7803 16.062 16.062C15.7803 16.3437 15.3983 16.5019 15 16.5019C14.6017 16.5019 14.2197 16.3437 13.938 16.062L11.196 13.317C10.9148 13.0357 10.7568 12.6542 10.7568 12.2565C10.7568 11.8588 10.9148 11.4773 11.196 11.196ZM6 24C6 23.6022 6.15804 23.2206 6.43934 22.9393C6.72064 22.658 7.10218 22.5 7.5 22.5H12.258C12.6558 22.5 13.0374 22.658 13.3187 22.9393C13.6 23.2206 13.758 23.6022 13.758 24C13.758 24.3978 13.6 24.7794 13.3187 25.0607C13.0374 25.342 12.6558 25.5 12.258 25.5H7.5C7.10218 25.5 6.72064 25.342 6.43934 25.0607C6.15804 24.7794 6 24.3978 6 24ZM34.5 24C34.5 23.6022 34.658 23.2206 34.9393 22.9393C35.2206 22.658 35.6022 22.5 36 22.5H40.5C40.8978 22.5 41.2794 22.658 41.5607 22.9393C41.842 23.2206 42 23.6022 42 24C42 24.3978 41.842 24.7794 41.5607 25.0607C41.2794 25.342 40.8978 25.5 40.5 25.5H36C35.6022 25.5 35.2206 25.342 34.9393 25.0607C34.658 24.7794 34.5 24.3978 34.5 24ZM36.762 11.262C36.5538 11.0559 36.2759 10.9354 35.9832 10.9243C35.6904 10.9132 35.4042 11.0123 35.181 11.202L22.641 21.93C22.3522 22.1773 22.1182 22.4822 21.954 22.8252C21.7898 23.1681 21.6991 23.5416 21.6877 23.9217C21.6762 24.3017 21.7443 24.68 21.8876 25.0322C22.0308 25.3844 22.246 25.7029 22.5195 25.9671C22.7929 26.2313 23.1185 26.4355 23.4755 26.5665C23.8324 26.6976 24.2128 26.7526 24.5922 26.7281C24.9717 26.7037 25.3418 26.6002 25.679 26.4243C26.0161 26.2485 26.3128 26.0042 26.55 25.707L36.852 12.816C37.0306 12.5914 37.1204 12.309 37.1044 12.0224C37.0883 11.7359 36.9676 11.4653 36.765 11.262H36.762Z" fill="white"/>
<path fill-rule="evenodd" clip-rule="evenodd" d="M19.992 47.667C16.8838 47.1406 13.9097 46.0073 11.2396 44.3315C8.56938 42.6558 6.25541 40.4706 4.42976 37.9006C0.742705 32.7102 -0.731483 26.2678 0.331505 19.9905C1.39449 13.7132 4.90758 8.1153 10.0979 4.42824C15.2883 0.741179 21.7307 -0.733009 28.008 0.329979C34.2857 1.39297 39.884 4.90621 43.5713 10.0968C47.2586 15.2875 48.733 21.7303 47.67 28.008C46.607 34.2857 43.0938 39.8839 37.9031 43.5713C32.7125 47.2586 26.2697 48.733 19.992 47.67V47.667ZM5.997 34.818C11.4683 31.653 17.6792 29.9908 24 30C30.558 30 36.708 31.755 42.003 34.818C43.9166 31.6315 44.9502 27.9942 44.9983 24.2776C45.0463 20.5609 44.107 16.8982 42.2763 13.6633C40.4456 10.4285 37.7891 7.73748 34.5782 5.86516C31.3673 3.99285 27.7169 3.00632 24 3.00632C20.2831 3.00632 16.6327 3.99285 13.4218 5.86516C10.2109 7.73748 7.5544 10.4285 5.72372 13.6633C3.89304 16.8982 2.95374 20.5609 3.00176 24.2776C3.04977 27.9942 4.08337 31.6315 5.997 34.818Z" fill="white"/>
</g>
<defs>
<clipPath id="clip0_5_101">
<rect width="48" height="48" fill="white"/>
</clipPath>
</defs>
</svg>
