<svg width="16" height="24" viewBox="0 0 16 24" fill="none" xmlns="http://www.w3.org/2000/svg">
<g clip-path="url(#clip0_5_204)">
<path d="M0.0533333 7.57352C0.16 7.1113 0.391111 6.72908 0.746667 6.42686C1.10222 6.12463 1.51111 5.97352 1.97333 5.97352H14.0267C14.4889 5.97352 14.8978 6.12463 15.2533 6.42686C15.6089 6.72908 15.84 7.1113 15.9467 7.57352L8 12.4269L0.0533333 7.57352ZM0 8.69352V15.7869L5.81333 12.2669L0 8.69352ZM6.77333 12.8535L0.213333 16.8535C0.355556 17.2091 0.595556 17.4935 0.933333 17.7069C1.27111 17.9202 1.61778 18.0269 1.97333 18.0269H14.0267C14.3822 18.0269 14.7289 17.9202 15.0667 17.7069C15.4044 17.4935 15.6444 17.2091 15.7867 16.8535L9.22667 12.8535L8 13.6002L6.77333 12.8535ZM10.1867 12.2669L16 15.7869V8.69352L10.1867 12.2669Z" fill="white"/>
</g>
<defs>
<clipPath id="clip0_5_204">
<rect width="16" height="16" fill="white" transform="matrix(1 0 0 -1 0 20)"/>
</clipPath>
</defs>
</svg>
