<svg width="16" height="24" viewBox="0 0 16 24" fill="none" xmlns="http://www.w3.org/2000/svg">
<g clip-path="url(#clip0_5_209)">
<path d="M1.78666 4.53354C2.17777 4.14243 2.6311 3.96465 3.14666 4.00021C3.66221 4.03576 4.07999 4.26688 4.39999 4.69354L6.21332 6.98687C6.3911 7.20021 6.50666 7.44021 6.55999 7.70687C6.61332 7.97354 6.60443 8.23132 6.53332 8.48021L5.99999 10.6669C5.92888 10.9158 5.98221 11.1291 6.15999 11.3069L8.61332 13.7602C8.7911 13.938 9.00443 13.9913 9.25332 13.9202L11.44 13.3869C11.6889 13.3158 11.9467 13.3069 12.2133 13.3602C12.48 13.4135 12.72 13.5291 12.9333 13.7069L15.2267 15.5202C15.6533 15.8402 15.8844 16.258 15.92 16.7735C15.9555 17.2891 15.7778 17.7424 15.3867 18.1335L14.3733 19.1469C13.9822 19.538 13.5289 19.7958 13.0133 19.9202C12.4978 20.0447 11.9911 20.018 11.4933 19.8402C8.82666 18.9158 6.48888 17.4491 4.47999 15.4402C2.4711 13.4313 1.00443 11.0935 0.079989 8.42688C-0.0977888 7.9291 -0.124455 7.42243 -1.10418e-05 6.90687C0.124433 6.39132 0.382211 5.93799 0.773322 5.54688L1.78666 4.53354Z" fill="white"/>
</g>
<defs>
<clipPath id="clip0_5_209">
<rect width="16" height="16" fill="white" transform="matrix(1 0 0 -1 0 20)"/>
</clipPath>
</defs>
</svg>
