<svg width="48" height="48" viewBox="0 0 48 48" fill="none" xmlns="http://www.w3.org/2000/svg">
<g clip-path="url(#clip0_5_81)">
<path d="M43.4362 23.4778C46.3219 19.0819 46.967 15.0058 45.2285 11.9981C43.6483 9.27744 40.2768 7.77696 35.7264 7.77696C35.0976 7.77696 34.4381 7.80576 33.7574 7.8672C31.4909 3.02112 28.1818 0 24.4502 0C22.3555 0 20.4202 0.9648 18.7008 2.64192C18.5203 2.58528 18.3408 2.5296 18.1478 2.5296C17.0179 2.5296 16.1078 3.44736 16.1078 4.57728C16.1078 4.94496 16.2202 5.27232 16.393 5.57088C15.9398 6.28224 15.5136 7.03488 15.1286 7.86816C14.4461 7.80672 13.7885 7.77792 13.1587 7.77792C8.60929 7.77792 5.23585 9.2784 3.65761 11.999C1.91905 15.0067 2.56225 19.0838 5.44993 23.4787C5.57185 23.6467 5.70721 23.8138 5.81761 23.9808C3.94177 26.6717 2.86273 29.3472 2.72449 31.7741C2.19073 32.1379 1.81345 32.7264 1.81345 33.4387C1.81345 34.4026 2.48641 35.1754 3.38017 35.3914C3.47521 35.5958 3.55009 35.807 3.65761 35.999C5.23585 38.7197 8.60833 40.2192 13.1578 40.2192C13.7875 40.2192 14.4451 40.1923 15.1267 40.129C17.3942 44.9779 20.7024 48 24.4502 48C28.1837 48 31.4909 44.9779 33.7574 40.1299C34.4381 40.1923 35.0957 40.2211 35.7245 40.2211C37.8259 40.2211 39.6595 39.8899 41.1994 39.2813C41.5123 39.4637 41.8445 39.5904 42.2208 39.5904C43.3536 39.5904 44.2618 38.6726 44.2618 37.5418C44.2618 37.4554 44.2368 37.3824 44.2138 37.2979C44.6074 36.8986 44.951 36.4742 45.2285 36C47.1005 32.759 46.127 28.3795 43.0685 23.9808C43.1789 23.8128 43.3142 23.6458 43.4362 23.4778ZM35.7264 9.82464C39.5155 9.82464 42.2659 10.9642 43.4515 13.0262C44.7686 15.3082 44.1638 18.5885 41.7619 22.2662C40.3027 20.4883 38.5219 18.7334 36.433 17.0698C36.0413 14.4432 35.4182 12.0269 34.6013 9.8736C34.9805 9.86016 35.3741 9.82464 35.7264 9.82464ZM36.7862 20.0851C38.2032 21.3706 39.4589 22.6886 40.4986 24.0067C39.433 25.3584 38.1936 26.6755 36.7834 27.9418C36.8861 26.665 36.9485 25.3546 36.9485 24.001C36.9485 22.6618 36.887 21.3581 36.7862 20.0851ZM33.9955 15.2736C32.951 14.5382 31.8624 13.8307 30.6998 13.1654C29.5411 12.4954 28.369 11.9059 27.1949 11.3501C29.0112 10.7606 30.7805 10.3392 32.4691 10.0963C33.0883 11.6544 33.6038 13.4035 33.9955 15.2736ZM31.584 8.13984C29.2906 8.5296 26.8685 9.21792 24.4339 10.1683C22.0147 9.21792 19.5936 8.5296 17.3011 8.14848C17.5747 7.61088 17.8598 7.10688 18.1507 6.63264C19.2931 6.63072 20.2013 5.71392 20.2013 4.57728C20.2013 4.42464 20.1485 4.28448 20.1091 4.13088C21.433 2.81376 22.9085 2.0544 24.4493 2.0544C27.1776 2.0544 29.7005 4.39968 31.584 8.13984ZM16.415 10.0973C18.1027 10.3402 19.8749 10.7616 21.6893 11.351C20.5152 11.9059 19.345 12.4954 18.1872 13.1645C17.0227 13.8298 15.935 14.5382 14.8906 15.265C15.2803 13.4026 15.7987 11.6544 16.415 10.0973ZM5.43457 13.0272C6.61729 10.9651 9.36865 9.8256 13.1587 9.8256C13.511 9.8256 13.9056 9.86208 14.2829 9.8832C13.4659 12.0278 12.8448 14.4432 12.4531 17.0698C10.3632 18.7344 8.58145 20.4893 7.12225 22.2682C4.71937 18.5914 4.11649 15.3091 5.43457 13.0272ZM12.0998 27.9427C10.6896 26.6765 9.45121 25.3594 8.38465 24.0144C9.42433 22.6877 10.6838 21.3696 12.0989 20.0832C11.9981 21.3552 11.9366 22.6598 11.9366 23.9981C11.9376 25.3536 11.999 26.664 12.0998 27.9427ZM13.1587 38.1734C9.36865 38.1734 6.61825 37.033 5.43553 34.9728C5.39905 34.921 5.38945 34.8605 5.35585 34.8077C5.70337 34.4477 5.90881 33.9658 5.90881 33.4387C5.90881 32.6496 5.44705 31.9901 4.81057 31.6435C4.96801 29.8406 5.77633 27.8198 7.15489 25.7347C8.62753 27.5386 10.4083 29.2934 12.4522 30.9197C12.8438 33.5453 13.465 35.9702 14.2819 38.1149C13.9046 38.136 13.511 38.1734 13.1587 38.1734ZM14.8906 32.7245C15.9389 33.4646 17.0438 34.1712 18.1862 34.8326C19.343 35.5027 20.5162 36.0922 21.6893 36.6394C19.8749 37.2355 18.1027 37.6579 16.4141 37.9008C15.7978 36.336 15.2803 34.5955 14.8906 32.7245ZM24.4502 45.9446C21.7066 45.9446 19.1837 43.5984 17.3002 39.8496C19.5936 39.4685 22.0157 38.7725 24.4349 37.8298C26.8694 38.7725 29.2925 39.4694 31.5869 39.8496C29.7014 43.5984 27.1786 45.9446 24.4502 45.9446ZM32.4691 37.9008C30.7814 37.6589 29.0093 37.2355 27.1949 36.6394C28.3709 36.0922 29.5411 35.5008 30.6998 34.8326C31.8403 34.1722 32.9462 33.4646 33.9955 32.7235C33.6038 34.5946 33.0893 36.336 32.4691 37.9008ZM29.6717 33.0547C27.9437 34.0541 26.1955 34.8998 24.4339 35.6218C22.6877 34.8998 20.9376 34.0541 19.2134 33.0566C17.4864 32.065 15.8813 30.9773 14.3846 29.8205C14.1206 27.96 13.9757 26.0122 13.9757 24.001C13.9757 21.9926 14.1197 20.0554 14.3827 18.1891C15.8563 17.04 17.4787 15.9398 19.2134 14.9357C20.9386 13.945 22.6877 13.0992 24.4339 12.3773C26.1946 13.0992 27.9437 13.945 29.6717 14.9366C31.4083 15.9398 33.0115 17.041 34.5014 18.1901C34.7635 20.0554 34.9085 21.9917 34.9085 24.001C34.9085 26.0122 34.7645 27.96 34.5005 29.8205C33.0038 30.9686 31.3987 32.0621 29.6717 33.0547ZM43.4515 34.9728C43.3123 35.207 43.1568 35.4326 42.9792 35.6429C42.744 35.5488 42.4819 35.4864 42.2227 35.4864C41.1101 35.4864 40.2154 36.3754 40.176 37.4765C38.9434 37.9238 37.4496 38.1734 35.7245 38.1734C35.3731 38.1734 34.9805 38.136 34.6013 38.1168C35.4211 35.9722 36.0432 33.5453 36.433 30.9187C38.4768 29.2934 40.2547 27.5386 41.7293 25.7347C44.0477 29.2464 44.8157 32.6045 43.4515 34.9728Z" fill="white"/>
<path d="M24.4349 19.8979C22.175 19.8979 20.3414 21.7306 20.3414 24C20.3414 26.2666 22.1741 28.1021 24.4349 28.1021C26.7101 28.1021 28.5446 26.2666 28.5446 24C28.5437 21.7306 26.7091 19.8979 24.4349 19.8979Z" fill="white"/>
</g>
<defs>
<clipPath id="clip0_5_81">
<rect width="48" height="48" fill="white"/>
</clipPath>
</defs>
</svg>
