<svg width="48" height="48" viewBox="0 0 48 48" fill="none" xmlns="http://www.w3.org/2000/svg">
<g clip-path="url(#clip0_5_63)">
<path d="M35.2292 22.2358H16.6992V25.9418H35.2292V22.2358Z" fill="white"/>
<path d="M24.1297 40.7659H5.58123C4.56023 40.7659 3.72824 39.9339 3.72824 38.9129V7.41198H40.7882V23.042C41.5553 22.6658 42.3947 22.4453 43.2767 22.4453C43.6918 22.4453 44.0976 22.4972 44.4941 22.5843V5.55899C44.4941 2.48857 42.0037 0 38.9352 0H5.58123C2.51267 0 0.0222473 2.48857 0.0222473 5.55899V38.9129C0.0222473 41.9815 2.51267 44.4719 5.58123 44.4719H23.0457L24.1297 40.7659Z" fill="white"/>
<path d="M35.2292 14.824H16.6992V18.53H35.2292V14.824Z" fill="white"/>
<path d="M16.6992 33.3539H29.8481L33.5726 29.6479H16.6992V33.3539Z" fill="white"/>
<path d="M12.9932 22.2358H9.28723V25.9418H12.9932V22.2358Z" fill="white"/>
<path d="M12.9932 14.824H9.28723V18.53H12.9932V14.824Z" fill="white"/>
<path d="M12.9932 29.6479H9.28723V33.3539H12.9932V29.6479Z" fill="white"/>
<path d="M47.3922 29.5257L44.5812 26.7092C43.8067 25.929 42.554 25.9235 41.7888 26.6925L39.5281 28.968L45.1427 34.6066L47.4052 32.3293C48.1742 31.5603 48.1686 30.304 47.3922 29.5257Z" fill="white"/>
<path d="M28.4565 39.8431C28.3323 39.9451 28.2267 40.0711 28.1785 40.2378L26.2199 46.9364C26.1328 47.2273 26.2143 47.5423 26.4274 47.7573C26.5868 47.9148 26.798 48 27.0148 48C27.0927 48 27.1723 47.9889 27.2483 47.9648L33.9228 45.9969C34.0784 45.9525 34.1989 45.8561 34.3008 45.7412L43.4528 36.6338L37.5917 30.7505L28.4565 39.8431ZM29.344 45.6171L28.5621 44.8296L29.672 41.0365L32.5108 41.622L33.0723 44.5164L29.344 45.6171Z" fill="white"/>
</g>
<defs>
<clipPath id="clip0_5_63">
<rect width="48" height="48" fill="white"/>
</clipPath>
</defs>
</svg>
