<svg width="48" height="48" viewBox="0 0 48 48" fill="none" xmlns="http://www.w3.org/2000/svg">
<g clip-path="url(#clip0_5_90)">
<path d="M46.7798 12.8064L24.8348 3.02014C24.3035 2.78137 23.6963 2.78137 23.1622 3.02014L1.21837 12.8064C0.502074 13.1253 0.0290489 13.8273 0.00248495 14.612C-0.023147 15.3951 0.396129 16.1267 1.08881 16.4952L23.0324 28.1978C23.335 28.3601 23.6666 28.4395 23.9992 28.4395C24.3335 28.4395 24.6647 28.3601 24.9678 28.1978L46.9124 16.4952C47.6045 16.1267 48.0242 15.3951 47.9991 14.612C47.9691 13.8273 47.4972 13.1253 46.7798 12.8064Z" fill="white"/>
<path d="M44.9765 21.5627L23.998 32.7537L3.02286 21.5627C2.01871 21.0269 0.775329 21.407 0.243117 22.4093C-0.292822 23.4111 0.0873065 24.6542 1.08866 25.1886L23.0322 36.8944C23.3348 37.0557 23.6665 37.136 23.9991 37.136C24.3334 37.136 24.6646 37.0568 24.9676 36.8944L46.9123 25.1886C47.9113 24.6542 48.291 23.4111 47.7581 22.4093C47.2219 21.4069 45.9776 21.0267 44.9765 21.5627Z" fill="white"/>
<path d="M44.9765 29.5895L23.998 40.7768L3.02286 29.5895C2.01871 29.0532 0.775329 29.4338 0.243117 30.4347C-0.292822 31.4365 0.0873065 32.6809 1.08866 33.2145L23.0322 44.9166C23.3348 45.0789 23.6665 45.1592 23.9991 45.1592C24.3334 45.1592 24.6646 45.08 24.9676 44.9166L46.9123 33.2145C47.9113 32.6809 48.291 31.4367 47.7581 30.4347C47.2219 29.4338 45.9793 29.0531 44.9765 29.5895Z" fill="white"/>
</g>
<defs>
<clipPath id="clip0_5_90">
<rect width="48" height="48" fill="white"/>
</clipPath>
</defs>
</svg>
