<svg width="24" height="36" viewBox="0 0 24 36" fill="none" xmlns="http://www.w3.org/2000/svg">
<g clip-path="url(#clip0_5_220)">
<path d="M0 7.68C0 7.25333 0.173333 6.86667 0.52 6.52C0.866667 6.17333 1.28 6 1.76 6H22.24C22.72 6 23.1333 6.17333 23.48 6.52C23.8267 6.86667 24 7.25333 24 7.68V28.32C24 28.7467 23.8267 29.1333 23.48 29.48C23.1333 29.8267 22.72 30 22.24 30H1.76C1.28 30 0.866667 29.8267 0.52 29.48C0.173333 29.1333 0 28.7467 0 28.32V7.68ZM7.44 26.08V15.28H3.84V26.08H7.44ZM5.6 13.76C6.24 13.76 6.74667 13.5867 7.12 13.24C7.49333 12.8933 7.66667 12.4533 7.64 11.92C7.61333 11.3867 7.42667 10.9333 7.08 10.56C6.73333 10.1867 6.25333 10 5.64 10C5.02667 10 4.53333 10.1867 4.16 10.56C3.78667 10.9333 3.6 11.3867 3.6 11.92C3.6 12.4533 3.78667 12.8933 4.16 13.24C4.53333 13.5867 5.01333 13.76 5.6 13.76ZM12.96 26.08V20C12.96 19.6267 13.0133 19.3333 13.12 19.12C13.2267 18.8 13.44 18.5067 13.76 18.24C14.08 17.9733 14.48 17.84 14.96 17.84C15.6 17.84 16.0667 18.0533 16.36 18.48C16.6533 18.9067 16.8 19.52 16.8 20.32V26.08H20.4V19.84C20.4 18.24 20.0133 17.0267 19.24 16.2C18.4667 15.3733 17.4667 14.96 16.24 14.96C15.3867 14.96 14.6667 15.1733 14.08 15.6C13.6533 15.8667 13.28 16.2667 12.96 16.8V15.28H9.36C9.41333 15.7067 9.41333 17.6267 9.36 21.04V26.08H12.96Z" fill="white"/>
</g>
<defs>
<clipPath id="clip0_5_220">
<rect width="24" height="24" fill="white" transform="matrix(1 0 0 -1 0 30)"/>
</clipPath>
</defs>
</svg>
