<svg width="16" height="24" viewBox="0 0 16 24" fill="none" xmlns="http://www.w3.org/2000/svg">
<g clip-path="url(#clip0_5_199)">
<path d="M6.02667 20C6.34667 19.68 6.66667 19.36 6.98667 19.04C7.73333 18.2578 8.40889 17.4578 9.01333 16.64C9.90222 15.4667 10.5956 14.3822 11.0933 13.3867C11.7333 12.1067 12.0533 10.9689 12.0533 9.97333C12.0533 8.90667 11.7778 7.91111 11.2267 6.98667C10.6756 6.06222 9.94667 5.33333 9.04 4.8C8.13333 4.26667 7.12889 4 6.02667 4C4.92444 4 3.92 4.26667 3.01333 4.8C2.10667 5.33333 1.37778 6.06222 0.826667 6.98667C0.275556 7.91111 0 8.90667 0 9.97333C0 10.9689 0.32 12.1067 0.96 13.3867C1.45778 14.3822 2.15111 15.4667 3.04 16.64C3.64444 17.4578 4.32 18.2578 5.06667 19.04L6.02667 20ZM6.02667 13.0133C5.20889 13.0133 4.50667 12.72 3.92 12.1333C3.33333 11.5467 3.04 10.8356 3.04 10C3.04 9.16444 3.33333 8.45333 3.92 7.86667C4.50667 7.28 5.20889 6.98667 6.02667 6.98667C6.84444 6.98667 7.54667 7.28 8.13333 7.86667C8.72 8.45333 9.01333 9.16444 9.01333 10C9.01333 10.8356 8.72 11.5467 8.13333 12.1333C7.54667 12.72 6.84444 13.0133 6.02667 13.0133Z" fill="white"/>
</g>
<defs>
<clipPath id="clip0_5_199">
<rect width="16" height="16" fill="white" transform="matrix(1 0 0 -1 0 20)"/>
</clipPath>
</defs>
</svg>
