<svg width="48" height="48" viewBox="0 0 48 48" fill="none" xmlns="http://www.w3.org/2000/svg">
<path d="M46.4922 8.01292C46.49 5.88897 44.769 4.16832 42.6451 4.16577H5.33937C3.21542 4.16832 1.4944 5.88897 1.49222 8.01292V11.8287H46.4922V8.01292ZM5.74448 10.5522C4.34261 10.5522 3.20522 9.41516 3.20522 8.01292C3.20522 6.61032 4.34261 5.47329 5.74521 5.47329C7.14709 5.47329 8.28448 6.61032 8.28448 8.01292C8.28266 9.4148 7.14673 10.5511 5.74448 10.5522ZM11.6245 10.5522C10.2219 10.5522 9.08524 9.41516 9.08524 8.01256C9.08597 6.60995 10.223 5.47329 11.6252 5.47329C13.0278 5.47366 14.1645 6.61032 14.1645 8.01292C14.163 9.41516 13.0264 10.5511 11.6245 10.5522ZM17.5042 10.5522C16.1016 10.5522 14.9645 9.41553 14.9645 8.01292C14.9645 6.61032 16.1016 5.47329 17.5042 5.47329C18.9068 5.47329 20.0434 6.61032 20.0434 8.01292C20.0423 9.4148 18.906 10.5511 17.5042 10.5522Z" fill="white"/>
<path d="M11.6245 7.10571C11.1232 7.10571 10.717 7.51192 10.717 8.01285C10.717 8.51378 11.1232 8.91999 11.6245 8.91999C12.1258 8.91999 12.5317 8.51378 12.5317 8.01285C12.5313 7.51192 12.1258 7.10644 11.6245 7.10571Z" fill="white"/>
<path d="M5.33937 43.4889H42.6451C44.769 43.4867 46.49 41.7653 46.4922 39.6417V13.4607H1.49222V39.6417C1.4944 41.7653 3.21542 43.4867 5.33937 43.4889ZM27.9355 19.2296H40.7594C41.21 19.2296 41.5754 19.5954 41.5754 20.0457C41.5754 20.4967 41.21 20.8617 40.7594 20.8617H27.9355C27.4845 20.8617 27.1195 20.4967 27.1195 20.0457C27.1195 19.5954 27.4845 19.2296 27.9355 19.2296ZM27.9355 25.1297H40.7594C41.21 25.1297 41.5754 25.4954 41.5754 25.9457C41.5754 26.3967 41.21 26.7618 40.7594 26.7618H27.9355C27.4845 26.7618 27.1195 26.3967 27.1195 25.9457C27.1195 25.4954 27.4845 25.1297 27.9355 25.1297ZM27.9355 31.0297H40.7594C41.21 31.0297 41.5754 31.3955 41.5754 31.8458C41.5754 32.2968 41.21 32.6618 40.7594 32.6618H27.9355C27.4845 32.6618 27.1195 32.2968 27.1195 31.8458C27.1195 31.3955 27.4845 31.0297 27.9355 31.0297ZM27.9355 36.9298H40.7594C41.21 36.9298 41.5754 37.2955 41.5754 37.7458C41.5754 38.1968 41.21 38.5619 40.7594 38.5619H27.9355C27.4845 38.5619 27.1195 38.1968 27.1195 37.7458C27.1195 37.2955 27.4845 36.9298 27.9355 36.9298ZM6.15543 20.0457C6.15543 19.5954 6.52047 19.2296 6.97149 19.2296H21.7772C22.2282 19.2296 22.5933 19.5954 22.5933 20.0457V37.7458C22.5933 38.1968 22.2282 38.5619 21.7772 38.5619H6.97149C6.52047 38.5619 6.15543 38.1968 6.15543 37.7458V20.0457Z" fill="white"/>
<path d="M17.5042 7.10571C17.0033 7.10535 16.5967 7.51156 16.5967 8.01285C16.5967 8.51378 17.0029 8.91999 17.5042 8.91999C18.0051 8.91999 18.4113 8.51378 18.4113 8.01285C18.411 7.51192 18.0051 7.10644 17.5042 7.10571Z" fill="white"/>
<path d="M5.74448 7.10571C5.24392 7.10571 4.83734 7.51192 4.83734 8.01285C4.83734 8.51378 5.24392 8.91999 5.74448 8.91999C6.24614 8.91999 6.65235 8.51378 6.65235 8.01285C6.65162 7.51192 6.24578 7.10644 5.74448 7.10571Z" fill="white"/>
<path d="M7.78757 20.8618H20.9611V36.9299H7.78757V20.8618Z" fill="white"/>
</svg>
